<svg width="24" height="24" viewBox="0 0 24 24" fill="none" xmlns="http://www.w3.org/2000/svg">
<path d="M13.0305 2.51834L2.04 0.899573C1.53 0.822489 1.0095 0.95775 0.6195 1.27772C0.2295 1.60788 0 2.08202 0 2.57652V23.0068C0 23.5405 0.45 23.9769 1.0005 23.9769H4.251V18.8864C4.251 17.9454 5.031 17.1891 6.0015 17.1891H8.502C9.4725 17.1891 10.2525 17.9454 10.2525 18.8864V23.9769H14.502V4.19675C14.5005 3.36191 13.8795 2.65506 13.0305 2.51834ZM5.5005 15.0075H4.0005C3.5865 15.0075 3.2505 14.6817 3.2505 14.2802C3.2505 13.8788 3.5865 13.553 4.0005 13.553H5.5005C5.9145 13.553 6.2505 13.8788 6.2505 14.2802C6.2505 14.6817 5.9145 15.0075 5.5005 15.0075ZM5.5005 12.0986H4.0005C3.5865 12.0986 3.2505 11.7728 3.2505 11.3714C3.2505 10.97 3.5865 10.6442 4.0005 10.6442H5.5005C5.9145 10.6442 6.2505 10.97 6.2505 11.3714C6.2505 11.7728 5.9145 12.0986 5.5005 12.0986ZM5.5005 9.18977H4.0005C3.5865 9.18977 3.2505 8.86398 3.2505 8.46256C3.2505 8.06114 3.5865 7.73535 4.0005 7.73535H5.5005C5.9145 7.73535 6.2505 8.06114 6.2505 8.46256C6.2505 8.86398 5.9145 9.18977 5.5005 9.18977ZM5.5005 6.28093H4.0005C3.5865 6.28093 3.2505 5.95514 3.2505 5.55372C3.2505 5.1523 3.5865 4.82651 4.0005 4.82651H5.5005C5.9145 4.82651 6.2505 5.1523 6.2505 5.55372C6.2505 5.95514 5.9145 6.28093 5.5005 6.28093ZM10.5 15.0075H9C8.586 15.0075 8.25 14.6817 8.25 14.2802C8.25 13.8788 8.586 13.553 9 13.553H10.5C10.914 13.553 11.25 13.8788 11.25 14.2802C11.25 14.6817 10.914 15.0075 10.5 15.0075ZM10.5 12.0986H9C8.586 12.0986 8.25 11.7728 8.25 11.3714C8.25 10.97 8.586 10.6442 9 10.6442H10.5C10.914 10.6442 11.25 10.97 11.25 11.3714C11.25 11.7728 10.914 12.0986 10.5 12.0986ZM10.5 9.18977H9C8.586 9.18977 8.25 8.86398 8.25 8.46256C8.25 8.06114 8.586 7.73535 9 7.73535H10.5C10.914 7.73535 11.25 8.06114 11.25 8.46256C11.25 8.86398 10.914 9.18977 10.5 9.18977ZM10.5 6.28093H9C8.586 6.28093 8.25 5.95514 8.25 5.55372C8.25 5.1523 8.586 4.82651 9 4.82651H10.5C10.914 4.82651 11.25 5.1523 11.25 5.55372C11.25 5.95514 10.914 6.28093 10.5 6.28093Z" fill="#232536"/>
<path d="M22.6205 11.2191L15.5 9.77344V23.9773H22.25C23.2145 23.9773 24.0005 23.2167 24.0005 22.28V12.8772C24.0005 12.0758 23.4365 11.3937 22.6205 11.2191ZM20.2505 21.0685H18.7505C18.3365 21.0685 18.0005 20.7427 18.0005 20.3413C18.0005 19.9398 18.3365 19.6141 18.7505 19.6141H20.2505C20.6645 19.6141 21.0005 19.9398 21.0005 20.3413C21.0005 20.7427 20.6645 21.0685 20.2505 21.0685ZM20.2505 18.1596H18.7505C18.3365 18.1596 18.0005 17.8338 18.0005 17.4324C18.0005 17.031 18.3365 16.7052 18.7505 16.7052H20.2505C20.6645 16.7052 21.0005 17.031 21.0005 17.4324C21.0005 17.8338 20.6645 18.1596 20.2505 18.1596ZM20.2505 15.2508H18.7505C18.3365 15.2508 18.0005 14.925 18.0005 14.5236C18.0005 14.1222 18.3365 13.7964 18.7505 13.7964H20.2505C20.6645 13.7964 21.0005 14.1222 21.0005 14.5236C21.0005 14.925 20.6645 15.2508 20.2505 15.2508Z" fill="#FFD050"/>
</svg>
