<svg width="23" height="24" viewBox="0 0 23 24" fill="none" xmlns="http://www.w3.org/2000/svg">
<g clip-path="url(#clip0_533_2312)">
<path d="M5.11557 15.6191H2.53171C1.5999 15.6191 0.841797 16.3876 0.841797 17.3322V22.8813C0.841797 23.4613 1.30738 23.9333 1.87959 23.9333H5.76759C6.33985 23.9333 6.80544 23.4613 6.80544 22.8813V17.3322C6.80544 16.3876 6.04738 15.6191 5.11557 15.6191Z" fill="#232536"/>
<path d="M12.6996 12.2485H10.1157C9.18389 12.2485 8.42578 13.017 8.42578 13.9615V22.8809C8.42578 23.461 8.89137 23.9329 9.46363 23.9329H13.3516C13.9239 23.9329 14.3894 23.461 14.3894 22.8809V13.9616C14.3894 13.017 13.6314 12.2485 12.6996 12.2485Z" fill="#232536"/>
<path d="M20.4261 8.40869H17.8423C16.9104 8.40869 16.1523 9.17717 16.1523 10.1217V22.8812C16.1523 23.4613 16.6179 23.9332 17.1901 23.9332H21.0781C21.6504 23.9332 22.1159 23.4613 22.1159 22.8812V10.1217C22.116 9.17717 21.3579 8.40869 20.4261 8.40869Z" fill="#232536"/>
<path d="M18.3681 1.31044C18.052 0.857568 17.538 0.618088 16.9929 0.668811L12.1128 1.1265C11.5678 1.17763 11.1059 1.50897 10.8771 2.01288C10.6483 2.51679 10.7004 3.08806 11.0165 3.54093L11.2889 3.93117L5.23176 8.17396L5.22557 8.17836C4.79576 8.48666 4.51015 8.94621 4.42133 9.4723C4.33251 9.99839 4.45106 10.528 4.75519 10.9637C5.05932 11.3994 5.51266 11.6889 6.03165 11.779C6.1441 11.7985 6.25669 11.8082 6.36851 11.8082C6.77133 11.8082 7.1637 11.6829 7.49957 11.4431L13.5664 7.19363L13.8476 7.59637C14.1357 8.00901 14.588 8.24477 15.0783 8.24477C15.1261 8.24477 15.1743 8.2425 15.2228 8.238C15.7677 8.18686 16.2297 7.85548 16.4585 7.35152L18.5076 2.83849C18.7364 2.33449 18.6843 1.76326 18.3681 1.31044Z" fill="#FFD050"/>
</g>
<defs>
<clipPath id="clip0_533_2312">
<rect width="22.9565" height="23.2707" fill="white" transform="translate(0 0.662598)"/>
</clipPath>
</defs>
</svg>
