<svg width="23" height="23" viewBox="0 0 23 23" fill="none" xmlns="http://www.w3.org/2000/svg">
<g clip-path="url(#clip0_533_2350)">
<path d="M5.85054 6.68652L3.85792 6.83579C3.30345 6.87734 2.80963 7.15911 2.50299 7.60883L0.204943 10.9789C-0.0276155 11.3199 -0.0645859 11.7467 0.105981 12.1206C0.276593 12.4945 0.627205 12.7551 1.04385 12.8177L2.86834 13.0916C3.29514 10.8955 4.31683 8.7048 5.85054 6.68652Z" fill="#FFD050"/>
<path d="M10.1836 20.1836L10.4662 21.9526C10.5307 22.3566 10.7995 22.6966 11.185 22.862C11.3454 22.9308 11.5152 22.9647 11.6842 22.9647C11.9215 22.9647 12.1572 22.8977 12.3626 22.766L15.8384 20.5378C16.3022 20.2405 16.5928 19.7616 16.6355 19.2241L16.7895 17.292C14.7079 18.7791 12.4486 19.7698 10.1836 20.1836Z" fill="#FFD050"/>
<path d="M9.49658 18.9569C9.55992 18.9569 9.62362 18.9519 9.68718 18.9416C10.6361 18.7877 11.5507 18.5286 12.4232 18.1894L4.92442 10.9185C4.57457 11.7644 4.30729 12.6512 4.14863 13.5713C4.0861 13.934 4.21156 14.3035 4.4797 14.5635L8.66387 18.6206C8.8865 18.8364 9.18698 18.9569 9.49658 18.9569Z" fill="#FFD050"/>
<path d="M21.1661 10.551C23.0011 7.1112 23.069 3.47615 22.9731 1.77135C22.9403 1.18721 22.46 0.721504 21.8575 0.689665C21.5712 0.674507 21.2319 0.663574 20.8495 0.663574C18.8835 0.663574 15.7726 0.952311 12.8027 2.44181C10.4424 3.62555 7.34745 6.23201 5.52148 9.65739C5.54305 9.67372 5.56411 9.69106 5.58397 9.71031L13.6698 17.5505C13.6897 17.5697 13.7075 17.5901 13.7244 17.611C17.2571 15.8405 19.9453 12.8396 21.1661 10.551ZM13.3731 5.37813C14.6866 4.1045 16.8241 4.10437 18.1377 5.37813C18.7741 5.99511 19.1245 6.8155 19.1245 7.68807C19.1245 8.56063 18.7741 9.38102 18.1377 9.998C17.481 10.6348 16.618 10.9532 15.7554 10.9533C14.8925 10.9533 14.03 10.6349 13.3731 9.998C12.7367 9.38102 12.3863 8.56063 12.3863 7.68807C12.3863 6.8155 12.7367 5.99511 13.3731 5.37813Z" fill="#232536"/>
<path d="M14.3264 9.07408C15.1146 9.83829 16.3971 9.83833 17.1853 9.07408C17.5671 8.70385 17.7773 8.21166 17.7773 7.68811C17.7773 7.16455 17.5671 6.67236 17.1853 6.30217C16.7912 5.92004 16.2735 5.729 15.7559 5.729C15.2382 5.729 14.7205 5.92004 14.3265 6.30217C13.9447 6.67236 13.7344 7.16455 13.7344 7.68811C13.7344 8.21166 13.9447 8.70389 14.3264 9.07408Z" fill="#232536"/>
<path d="M0.687523 19.0414C0.859978 19.0414 1.03243 18.9776 1.16396 18.85L3.36392 16.7169C3.62708 16.4617 3.62708 16.0481 3.36392 15.7929C3.10082 15.5378 2.67415 15.5378 2.411 15.7929L0.211036 17.926C-0.0521162 18.1812 -0.0521162 18.5949 0.211036 18.85C0.342612 18.9776 0.515068 19.0414 0.687523 19.0414Z" fill="#FFD050"/>
<path d="M5.37991 17.7485C5.1168 17.4933 4.69014 17.4933 4.42698 17.7485L0.197364 21.8496C-0.0657881 22.1048 -0.0657881 22.5184 0.197364 22.7736C0.32894 22.9011 0.501396 22.9649 0.673851 22.9649C0.846306 22.9649 1.01876 22.9011 1.15029 22.7735L5.37987 18.6725C5.64306 18.4173 5.64306 18.0037 5.37991 17.7485Z" fill="#FFD050"/>
<path d="M6.4422 19.7026L4.24229 21.8357C3.97913 22.0909 3.97913 22.5045 4.24229 22.7597C4.37386 22.8873 4.54632 22.9511 4.71873 22.9511C4.89114 22.9511 5.06364 22.8873 5.19517 22.7597L7.39513 20.6266C7.65828 20.3714 7.65828 19.9578 7.39513 19.7026C7.13202 19.4474 6.70535 19.4474 6.4422 19.7026Z" fill="#FFD050"/>
</g>
<defs>
<clipPath id="clip0_533_2350">
<rect width="23" height="22.3011" fill="white" transform="translate(0 0.663574)"/>
</clipPath>
</defs>
</svg>
